<svg xmlns="http://www.w3.org/2000/svg" fill="none" viewBox="0 0 24 24" id="Typescript-Icon-Round--Streamline-Svg-Logos" height="24" width="24">
  <desc>
    Typescript Icon Round Streamline Icon: https://streamlinehq.com
  </desc>
  <path fill="#3178c6" d="M12 0.25c6.48935 0 11.75 5.26065 11.75 11.75S18.48935 23.75 12 23.75 0.25 18.48935 0.25 12 5.51065 0.25 12 0.25Z" stroke-width="0.25"></path>
  <path fill="#ffffff" d="M13.144075 15.00285v2.297675c0.368725 0.1915 0.804775 0.33515 1.3081 0.4309 0.5034 0.09575 1.034 0.143575 1.59175 0.143575 0.543525 0 1.059975 -0.0527 1.549175 -0.157975 0.489175 -0.1053 0.91815 -0.2788 1.2868 -0.520575 0.36865 -0.241725 0.660575 -0.557675 0.87565 -0.947825 0.215075 -0.390125 0.322575 -0.872325 0.322575 -1.4468 0 -0.416475 -0.0614 -0.781475 -0.184325 -1.09505 -0.122925 -0.313475 -0.300175 -0.59235 -0.531775 -0.83645 -0.2316 -0.244175 -0.5093 -0.463125 -0.833075 -0.657 -0.32375 -0.193875 -0.688925 -0.377 -1.0954 -0.5493 -0.2978 -0.124475 -0.564825 -0.245375 -0.8012 -0.3626 -0.2363 -0.117325 -0.43715 -0.236925 -0.60265 -0.359025 -0.165425 -0.122075 -0.293025 -0.251325 -0.3828 -0.38775 -0.089875 -0.1364 -0.13475 -0.2908 -0.13475 -0.4631 0 -0.158 0.0402 -0.300375 0.120525 -0.427225 0.080425 -0.126875 0.193775 -0.2358 0.3403 -0.32675 0.1466 -0.09095 0.32615 -0.16155 0.53885 -0.211825 0.212675 -0.05025 0.44905 -0.075375 0.709025 -0.075375 0.1891 0 0.388775 0.01435 0.599075 0.043075 0.2104 0.028725 0.4219 0.073 0.6346 0.132825 0.212675 0.05985 0.4195 0.13525 0.62035 0.226175 0.20085 0.090975 0.386375 0.196275 0.556575 0.315975v-2.14695c-0.345075 -0.134025 -0.722 -0.23335 -1.13085 -0.297975 -0.408875 -0.064625 -0.87795 -0.09695 -1.40735 -0.09695 -0.53885 0 -1.049325 0.05865 -1.53145 0.175925 -0.4821 0.117275 -0.9063 0.300375 -1.27265 0.5493 -0.366375 0.248925 -0.6558 0.56605 -0.8685 0.9514 -0.2127 0.38535 -0.3191 0.84605 -0.3191 1.38225 0 0.684525 0.195 1.26845 0.58495 1.751925 0.38995 0.4835 0.98195 0.892825 1.776075 1.227875 0.311925 0.12925 0.60265 0.256125 0.872075 0.3806 0.269325 0.124375 0.502125 0.253625 0.6983 0.38765 0.196175 0.134125 0.350925 0.280075 0.4644 0.438075 0.11345 0.157975 0.1702 0.337425 0.1702 0.538475 0 0.148425 -0.03545 0.286025 -0.1064 0.4129 -0.070875 0.12685 -0.178375 0.236925 -0.322575 0.330275 -0.144125 0.093375 -0.323775 0.16635 -0.53885 0.219025 -0.215075 0.0526 -0.466775 0.07895 -0.755025 0.07895 -0.491575 0 -0.978475 -0.087375 -1.460575 -0.262075 -0.482125 -0.1747 -0.9288 -0.436775 -1.34005 -0.78625ZM9.219525 9.295775h2.964075v-1.885625H3.921875v1.885625h2.949575v8.395625h2.348075V9.295775Z" stroke-width="0.25"></path>
</svg>