<svg xmlns="http://www.w3.org/2000/svg" fill="none" viewBox="0 0 24 24" id="Upwork--Streamline-Svg-Logos" height="24" width="24">
  <desc>
    Upwork Streamline Icon: https://streamlinehq.com
  </desc>
  <path fill="#85F658FF" d="M6.6754 12.943275c-0.382125 0 -0.74015 -0.1618 -1.06545 -0.42515l0.079175 -0.3718 0.00345 -0.01375c0.07055 -0.3959 0.294325 -1.0603 0.982825 -1.0603 0.51635 0 0.93635 0.42 0.93635 0.93635 -0.001725 0.51465 -0.4217 0.93465 -0.93635 0.93465Zm0 -2.8194c-0.879575 0 -1.561175 0.57145 -1.8383 1.51125 -0.423425 -0.635125 -0.743575 -1.39765 -0.931175 -2.039675H2.95925v2.4631c0 0.4854 -0.3959 0.881275 -0.881285 0.881275 -0.48539 0 -0.8812725 -0.395875 -0.8812725 -0.881275v-2.4631H0.25001v2.4631c-0.00344175 1.00865 0.8175875 1.83655 1.826235 1.83655 1.008655 0 1.82968 -0.8279 1.82968 -1.83655v-0.4131c0.184175 0.38385 0.40965 0.771125 0.683325 1.115375L4.0092 15.48725h0.96905l0.419975 -1.9777c0.36835 0.235825 0.791775 0.38385 1.277175 0.38385 1.0379 0 1.883025 -0.8503 1.883025 -1.8882 0 -1.0362 -0.845125 -1.881325 -1.883025 -1.881325Z" stroke-width="0.25"></path>
  <path fill="#000000" d="m11.4483 10.2305 0.61105 2.463075 0.673 -2.463075h0.8021L12.499975 13.79h-0.8021l-0.635125 -2.478575 -0.633425 2.476875h-0.8021l-1.03445 -3.559525h0.8021l0.673 2.463075 0.61105 -2.463075h0.769375v0.001725Zm4.005325 -0.106725c-1.04135 0 -1.88475 0.845125 -1.88475 1.88475 0 1.04135 0.845125 1.88475 1.88475 1.88475 1.04135 0 1.886475 -0.8434 1.886475 -1.88475s-0.845125 -1.88475 -1.886475 -1.88475Zm0 2.99495c-0.61275 0 -1.108475 -0.495725 -1.108475 -1.108475 0 -0.61275 0.497425 -1.108475 1.108475 -1.108475 0.61275 0 1.108475 0.495725 1.108475 1.108475 0 0.61105 -0.495725 1.108475 -1.108475 1.108475Zm4.17745 -2.0913c-0.53875 0 -0.974225 0.4372 -0.974225 0.974225v1.78665h-0.80725V10.2305h0.80725v0.54735s0.34425 -0.549075 1.051675 -0.549075h0.24785v0.79865h-0.3253Zm2.709225 0.8434c0.573175 -0.3236 0.962175 -0.938075 0.962175 -1.64205h-0.807275c0 0.593825 -0.48195 1.075775 -1.075775 1.075775h-0.108425V8.5127h-0.80725v5.2756h0.80725v-1.6765h0.096375c0.0792 0 0.182475 0.05165 0.228925 0.115325l1.14635 1.561175H23.75l-1.4097 -1.917475Z" stroke-width="0.25"></path>
</svg>